<?xml version="1.0" standalone="no"?>
<!DOCTYPE svg PUBLIC "-//W3C//DTD SVG 20010904//EN"
 "http://www.w3.org/TR/2001/REC-SVG-20010904/DTD/svg10.dtd">
<svg version="1.0" xmlns="http://www.w3.org/2000/svg"
 width="260.000000pt" height="260.000000pt" viewBox="0 0 260.000000 260.000000"
 preserveAspectRatio="xMidYMid meet">
<metadata>
Created by potrace 1.14, written by Peter Selinger 2001-2017
</metadata>
<g transform="translate(0.000000,260.000000) scale(0.100000,-0.100000)"
fill="#000000" stroke="none">
<path d="M0 1300 l0 -1300 1300 0 1300 0 0 1300 0 1300 -1300 0 -1300 0 0
-1300z m1974 828 c14 -20 16 -91 16 -575 l0 -552 -22 -15 c-31 -22 -165 -22
-196 0 l-22 15 0 399 0 399 -52 -30 c-42 -25 -58 -29 -78 -22 -24 8 -25 12
-28 105 -3 113 -27 87 193 215 77 46 148 83 157 83 9 0 24 -10 32 -22z m-853
-266 c25 -11 62 -34 83 -52 l36 -32 0 30 c0 60 3 62 111 62 99 0 100 0 110
-27 18 -47 5 -811 -15 -898 -33 -145 -110 -256 -215 -309 -156 -79 -383 -73
-571 15 -66 31 -110 64 -110 83 0 21 77 159 93 168 12 6 34 0 79 -26 83 -45
157 -66 237 -66 125 0 191 34 233 120 14 30 29 74 32 98 l6 43 -45 -31 c-60
-41 -99 -57 -165 -65 -70 -8 -183 15 -250 51 -69 38 -145 121 -183 201 -27 58
-32 82 -35 166 -6 148 29 253 119 350 119 131 310 181 450 119z"/>
<path d="M897 1633 c-154 -91 -156 -323 -4 -417 84 -52 209 -36 273 36 45 49
59 89 59 173 0 70 -4 86 -28 128 -42 71 -94 101 -181 105 -63 3 -76 0 -119
-25z"/>
</g>
</svg>
