<svg width="19" height="15" viewBox="0 0 19 15" fill="none" xmlns="http://www.w3.org/2000/svg">
<path fill-rule="evenodd" clip-rule="evenodd" d="M18.0548 1.11883C18.624 1.76648 18.81 3.23559 18.81 3.23559C18.81 3.23559 19 4.96191 19 6.68735V8.30558C19 10.0319 18.81 11.7569 18.81 11.7569C18.81 11.7569 18.6244 13.2265 18.0548 13.8737C17.4034 14.6394 16.6816 14.7183 16.2736 14.7629C16.2288 14.7678 16.1879 14.7723 16.1512 14.7772C13.4924 14.9934 9.5 15 9.5 15C9.5 15 4.56 14.9493 3.04 14.7856C2.968 14.7705 2.88073 14.7587 2.78191 14.7454C2.30049 14.6805 1.54487 14.5787 0.944852 13.8737C0.375247 13.2265 0.189998 11.7569 0.189998 11.7569C0.189998 11.7569 0 10.0315 0 8.30558V6.68735C0 4.96191 0.189998 3.23559 0.189998 3.23559C0.189998 3.23559 0.375247 1.76603 0.944852 1.11883C1.59772 0.35174 2.3206 0.273912 2.72847 0.229999C2.7724 0.22527 2.81268 0.220934 2.84881 0.216172C5.50763 -4.32134e-06 9.49565 0 9.49565 0H9.50436C9.50436 0 13.4924 6.03497e-06 16.1512 0.215741C16.1876 0.220588 16.2282 0.224997 16.2726 0.22981C16.6804 0.274067 17.4029 0.352461 18.0548 1.11883ZM6.33425 10.2529C6.33433 10.8877 6.98182 11.2893 7.50943 10.9818L12.2118 8.24073C12.7551 7.92403 12.7562 7.10215 12.2137 6.78383L7.51065 4.02416C6.98292 3.7145 6.33344 4.11617 6.33352 4.75215L6.33425 10.2529Z" fill="white"/>
</svg>
